<svg width="100" height="100" viewBox="0 0 100 100" fill="none" xmlns="http://www.w3.org/2000/svg">
<path fill-rule="evenodd" clip-rule="evenodd" d="M37.6567 40.0228L30.8195 48.3485L47.0172 61.6317C47.5685 62.0836 48.204 62.4216 48.8868 62.6262C49.5696 62.8309 50.2863 62.898 50.9952 62.8239C51.7042 62.7497 52.3914 62.5356 53.017 62.1941C53.6427 61.8525 54.1944 61.3903 54.6403 60.8341L83.6943 24.5573L75.2826 17.8238L49.6413 49.8428L37.6567 40.0228Z" fill="#FFB000"/>
<path fill-rule="evenodd" clip-rule="evenodd" d="M50 81.7759C32.4769 81.7759 18.2241 67.5202 18.2241 50C18.2241 32.4769 32.4798 18.2241 50 18.2241V9C27.3919 9 9 27.3919 9 50C9 72.6081 27.3919 91 50 91C72.6081 91 91 72.6081 91 50H81.7759C81.7759 67.5231 67.5202 81.7759 50 81.7759Z" fill="#4772FA"/>
</svg>
